<?xml version="1.0" encoding="UTF-8"?>
<svg id="Layer_2" data-name="Layer 2" xmlns="http://www.w3.org/2000/svg" viewBox="0 0 76 76.47">
  <defs>
    <style>
      .cls-1 {
        fill: none;
      }

      .cls-1, .cls-2 {
        stroke-width: 0rem;
      }

      .cls-2 {
        fill: #fc8059;
      }
    </style>
  </defs>
  <g id="Layer_1-2" data-name="Layer 1">
    <g id="favicon-76">
      <rect class="cls-1" y=".47" width="76" height="76" rx="11.24" ry="11.24"/>
      <path class="cls-2" d="M56.29,37.2l6.62-6.62c1.18-1.18,2.21-2.49,3.07-3.91,5.25-8.63,2.1-17.35-3.36-22.17-5.46-4.82-14.51-6.86-22.41-.57l-2.6,2.07-2.6-2.07C27.11-2.35,18.06-.31,12.6,4.51c-5.46,4.82-8.61,13.54-3.36,22.17.86,1.42,1.9,2.74,3.07,3.91l6.62,6.62-10.73,10.73c-1.02,1.02-1.58,2.37-1.58,3.81v18.87c0,2.97,2.42,5.38,5.38,5.38h51.21c2.97,0,5.38-2.42,5.38-5.38v-18.87c0-1.44-.56-2.79-1.58-3.81l-10.73-10.73ZM62.62,70.02H12.6v-18.03l10.56-10.56,10.64,10.64c1.05,1.05,2.43,1.57,3.81,1.57s2.76-.52,3.81-1.57l5.45-5.45c1.17-1.17,1.17-3.06,0-4.23-1.17-1.17-3.06-1.17-4.23,0l-5.03,5.03-21.07-21.07c-.84-.84-1.58-1.78-2.2-2.79-3.69-6.06-1.12-11.64,2.21-14.57,3.33-2.93,9.18-4.79,14.73-.38l2.97,2.36c1.97,1.57,4.73,1.57,6.7,0l2.97-2.36c5.55-4.42,11.41-2.56,14.73.38,3.33,2.93,5.9,8.51,2.21,14.57-.62,1.01-1.36,1.95-2.19,2.79l-6.62,6.62-10.64-10.64c-2.1-2.1-5.52-2.1-7.62,0l-5.59,5.59c-1.17,1.17-1.17,3.06,0,4.23,1.17,1.17,3.06,1.17,4.23,0l5.17-5.17,25.01,25.01v18.03Z"/>
    </g>
  </g>
</svg>